# xmcd CD database file
#
# Track frame offsets:
#	150
#	19300
#	43097
#	55242
#	74197
#	96500
#	108592
#	120582
#	136935
#	151080
#	167977
#
# Disc length: 2577 seconds
#
# Revision: 0
# Processed by: cddbd v1.5.1PL0 Copyright (c) Steve Scherf et al.
# Submitted via: CDex 1.51
#
DISCID=a00a0f0b
DTITLE=Papa John Creach - I'm The Fiddle Man
DYEAR=1992
DGENRE=Blues
TTITLE0=I'm The Fiddle Man
TTITLE1=Stardust
TTITLE2=The Rocker
TTITLE3=Jim Dandy
TTITLE4=Joyce
TTITLE5=Enjoy
TTITLE6=I Know Where I'm Goin'
TTITLE7=Solitude
TTITLE8=You Left Your Hapiness
TTITLE9=Fiddlin' Around
TTITLE10=Joyce (A Tom Moulton Remix)
EXTD=YEAR: 1992
EXTT0=
EXTT1=
EXTT2=
EXTT3=
EXTT4=
EXTT5=
EXTT6=
EXTT7=
EXTT8=
EXTT9=
EXTT10=
PLAYORDER=
